<svg width="24" height="25" viewBox="0 0 24 25" fill="none" xmlns="http://www.w3.org/2000/svg">
<path d="M17 2.17334H7C4.23858 2.17334 2 4.41192 2 7.17334V17.1733C2 19.9348 4.23858 22.1733 7 22.1733H17C19.7614 22.1733 22 19.9348 22 17.1733V7.17334C22 4.41192 19.7614 2.17334 17 2.17334Z" stroke="white" stroke-width="2" stroke-linecap="round" stroke-linejoin="round"/>
<path d="M16 11.5434C16.1234 12.3756 15.9813 13.2256 15.5938 13.9724C15.2063 14.7192 14.5931 15.3248 13.8416 15.7031C13.0901 16.0813 12.2384 16.213 11.4078 16.0793C10.5771 15.9457 9.80976 15.5535 9.21484 14.9586C8.61992 14.3636 8.22773 13.5963 8.09407 12.7656C7.9604 11.9349 8.09207 11.0833 8.47033 10.3318C8.84859 9.58025 9.45419 8.96714 10.201 8.57964C10.9478 8.19214 11.7978 8.04999 12.63 8.1734C13.4789 8.29928 14.2649 8.69486 14.8717 9.3017C15.4785 9.90855 15.8741 10.6945 16 11.5434Z" stroke="white" stroke-width="2" stroke-linecap="round" stroke-linejoin="round"/>
<path d="M17.5 6.67334H17.51" stroke="white" stroke-width="2" stroke-linecap="round" stroke-linejoin="round"/>
</svg>
