<svg width="25" height="24" viewBox="0 0 25 24" fill="none" xmlns="http://www.w3.org/2000/svg">
<g clip-path="url(#clip0_7_207)">
<path d="M23.1697 3.00005C22.2121 3.67552 21.1518 4.19216 20.0297 4.53005C19.4275 3.83756 18.6271 3.34674 17.7368 3.12397C16.8465 2.90121 15.9092 2.95724 15.0518 3.2845C14.1944 3.61176 13.4582 4.19445 12.9427 4.95376C12.4273 5.71308 12.1574 6.61238 12.1697 7.53005V8.53005C10.4124 8.57561 8.67101 8.18586 7.10075 7.39549C5.53048 6.60513 4.18006 5.43868 3.16974 4.00005C3.16974 4.00005 -0.830261 13 8.16974 17C6.11027 18.398 3.6569 19.099 1.16974 19C10.1697 24 21.1697 19 21.1697 7.50005C21.1688 7.2215 21.142 6.94364 21.0897 6.67005C22.1103 5.66354 22.8306 4.39276 23.1697 3.00005V3.00005Z" stroke="white" stroke-width="2" stroke-linecap="round" stroke-linejoin="round"/>
</g>
<defs>
<clipPath id="clip0_7_207">
<rect width="24" height="24" fill="white" transform="translate(0.169739)"/>
</clipPath>
</defs>
</svg>
