<svg width="100" height="36" viewBox="0 0 100 36" fill="none" xmlns="http://www.w3.org/2000/svg">
<path d="M22.8646 0V6.85438H8.55546V14.2591H19.2623V20.9134H8.55546V35.1224H0V0H22.8646ZM31.4889 35.3226C30.2715 35.3226 29.1874 35.1141 28.2368 34.6972C27.2862 34.2803 26.5357 33.7132 25.9853 32.9961C25.435 32.2622 25.1264 31.4451 25.0598 30.5445H29.2875C29.3375 31.0282 29.5626 31.4201 29.9629 31.7203C30.3631 32.0204 30.8551 32.1705 31.4388 32.1705C31.9725 32.1705 32.3811 32.0705 32.6646 31.8704C32.9648 31.6536 33.1149 31.3784 33.1149 31.0448C33.1149 30.6446 32.9064 30.3528 32.4895 30.1693C32.0726 29.9691 31.3972 29.7524 30.4632 29.5189C29.4626 29.2853 28.6287 29.0435 27.9616 28.7934C27.2946 28.5266 26.7192 28.118 26.2355 27.5676C25.7518 27.0006 25.51 26.2418 25.51 25.2912C25.51 24.4906 25.7268 23.7652 26.1605 23.1148C26.6107 22.4477 27.2612 21.9224 28.1117 21.5388C28.9789 21.1551 30.0045 20.9634 31.1887 20.9634C32.9398 20.9634 34.3157 21.397 35.3163 22.2642C36.3336 23.1314 36.9173 24.2821 37.0674 25.7164H33.1149C33.0482 25.2327 32.8313 24.8492 32.4645 24.5657C32.1143 24.2821 31.6473 24.1404 31.0636 24.1404C30.5633 24.1404 30.1797 24.2405 29.9129 24.4406C29.6461 24.6241 29.5126 24.8825 29.5126 25.2161C29.5126 25.6164 29.7211 25.9165 30.138 26.1167C30.5717 26.3168 31.2387 26.5169 32.1393 26.7171C33.1733 26.9839 34.0155 27.2508 34.6659 27.5176C35.3163 27.7677 35.8833 28.1846 36.367 28.7684C36.8673 29.3354 37.1258 30.1026 37.1425 31.0698C37.1425 31.887 36.909 32.6208 36.442 33.2712C35.9917 33.905 35.3329 34.4053 34.4658 34.7722C33.6152 35.1391 32.623 35.3226 31.4889 35.3226ZM52.9179 27.9178C52.9179 28.3181 52.8929 28.735 52.8429 29.1686H43.1617C43.2285 30.0358 43.5037 30.703 43.9872 31.1699C44.4875 31.6202 45.0963 31.8453 45.8134 31.8453C46.8808 31.8453 47.6229 31.3951 48.0398 30.4945H52.5927C52.3593 31.4117 51.9341 32.2372 51.3169 32.9711C50.7165 33.7049 49.9578 34.2803 49.0405 34.6972C48.1232 35.1141 47.0976 35.3226 45.9635 35.3226C44.596 35.3226 43.3786 35.0307 42.3112 34.447C41.2438 33.8633 40.4099 33.0295 39.8096 31.9454C39.2092 30.8613 38.909 29.5939 38.909 28.143C38.909 26.692 39.2009 25.4246 39.7845 24.3405C40.3849 23.2565 41.2188 22.4227 42.2861 21.8389C43.3536 21.2552 44.5793 20.9634 45.9635 20.9634C47.3143 20.9634 48.5151 21.2469 49.5658 21.8139C50.6165 22.3809 51.4337 23.1898 52.0173 24.2405C52.6177 25.2912 52.9179 26.5169 52.9179 27.9178ZM48.5401 26.7921C48.5401 26.0583 48.29 25.4746 47.7897 25.041C47.2893 24.6073 46.6639 24.3906 45.9135 24.3906C45.1964 24.3906 44.5876 24.5991 44.0873 25.016C43.6037 25.4329 43.3035 26.025 43.1867 26.7921H48.5401ZM48.8403 17.5862L42.8115 20.1128V17.161L48.8403 14.2591V17.5862ZM59.4525 23.49C59.9528 22.7229 60.5782 22.1225 61.3287 21.6888C62.0792 21.2386 62.9129 21.0134 63.8303 21.0134V25.5413H62.6545C61.5871 25.5413 60.7866 25.7748 60.253 26.2418C59.7193 26.692 59.4525 27.4926 59.4525 28.6433V35.1224H55.1747V21.1635H59.4525V23.49ZM68.0263 19.7126C67.2758 19.7126 66.6587 19.4958 66.1751 19.0622C65.7081 18.6119 65.4747 18.0615 65.4747 17.4111C65.4747 16.7441 65.7081 16.1937 66.1751 15.7601C66.6587 15.3098 67.2758 15.0846 68.0263 15.0846C68.76 15.0846 69.3604 15.3098 69.8275 15.7601C70.311 16.1937 70.5529 16.7441 70.5529 17.4111C70.5529 18.0615 70.311 18.6119 69.8275 19.0622C69.3604 19.4958 68.76 19.7126 68.0263 19.7126ZM70.1527 21.1635V35.1224H65.875V21.1635H70.1527ZM86.4111 27.9178C86.4111 28.3181 86.386 28.735 86.336 29.1686H76.6548C76.7215 30.0358 76.9967 30.703 77.4804 31.1699C77.9807 31.6202 78.5894 31.8453 79.3065 31.8453C80.3738 31.8453 81.1161 31.3951 81.533 30.4945H86.0859C85.8523 31.4117 85.4271 32.2372 84.81 32.9711C84.2097 33.7049 83.4508 34.2803 82.5336 34.6972C81.6164 35.1141 80.5907 35.3226 79.4566 35.3226C78.0891 35.3226 76.8716 35.0307 75.8043 34.447C74.737 33.8633 73.9031 33.0295 73.3027 31.9454C72.7023 30.8613 72.4021 29.5939 72.4021 28.143C72.4021 26.692 72.6939 25.4246 73.2777 24.3405C73.8781 23.2565 74.712 22.4227 75.7793 21.8389C76.8466 21.2552 78.0724 20.9634 79.4566 20.9634C80.8075 20.9634 82.0082 21.2469 83.0589 21.8139C84.1096 22.3809 84.9268 23.1898 85.5105 24.2405C86.1109 25.2912 86.4111 26.5169 86.4111 27.9178ZM82.0333 26.7921C82.0333 26.0583 81.7831 25.4746 81.2828 25.041C80.7825 24.6073 80.1571 24.3906 79.4066 24.3906C78.6895 24.3906 78.0807 24.5991 77.5804 25.016C77.0967 25.4329 76.7966 26.025 76.6799 26.7921H82.0333ZM94.3464 35.3226C93.129 35.3226 92.0449 35.1141 91.0943 34.6972C90.1437 34.2803 89.3932 33.7132 88.8429 32.9961C88.2925 32.2622 87.9839 31.4451 87.9173 30.5445H92.145C92.195 31.0282 92.4202 31.4201 92.8204 31.7203C93.2207 32.0204 93.7126 32.1705 94.2963 32.1705C94.8301 32.1705 95.2386 32.0705 95.5221 31.8704C95.8223 31.6536 95.9724 31.3784 95.9724 31.0448C95.9724 30.6446 95.7639 30.3528 95.347 30.1693C94.9301 29.9691 94.2547 29.7524 93.3207 29.5189C92.3201 29.2853 91.4862 29.0435 90.8191 28.7934C90.1521 28.5266 89.5767 28.118 89.093 27.5676C88.6093 27.0006 88.3676 26.2418 88.3676 25.2912C88.3676 24.4906 88.5843 23.7652 89.018 23.1148C89.4683 22.4477 90.1187 21.9224 90.9692 21.5388C91.8364 21.1551 92.8621 20.9634 94.0462 20.9634C95.7973 20.9634 97.1732 21.397 98.1738 22.2642C99.1911 23.1314 99.7748 24.2821 99.9249 25.7164H95.9724C95.9058 25.2327 95.6889 24.8492 95.322 24.5657C94.9718 24.2821 94.5049 24.1404 93.9211 24.1404C93.4208 24.1404 93.0372 24.2405 92.7704 24.4406C92.5036 24.6241 92.3701 24.8825 92.3701 25.2161C92.3701 25.6164 92.5786 25.9165 92.9955 26.1167C93.4292 26.3168 94.0962 26.5169 94.9968 26.7171C96.0308 26.9839 96.873 27.2508 97.5234 27.5176C98.1738 27.7677 98.7408 28.1846 99.2245 28.7684C99.7248 29.3354 99.9834 30.1026 100 31.0698C100 31.887 99.7665 32.6208 99.2995 33.2712C98.8493 33.905 98.1905 34.4053 97.3233 34.7722C96.4727 35.1391 95.4805 35.3226 94.3464 35.3226Z" fill="#F5F5F5"/>
</svg>
