<svg width="25" height="25" viewBox="0 0 25 25" fill="none" xmlns="http://www.w3.org/2000/svg">
<path d="M11.3521 4.8721H4.35205C3.82162 4.8721 3.31291 5.08281 2.93784 5.45789C2.56276 5.83296 2.35205 6.34167 2.35205 6.8721V20.8721C2.35205 21.4025 2.56276 21.9112 2.93784 22.2863C3.31291 22.6614 3.82162 22.8721 4.35205 22.8721H18.3521C18.8825 22.8721 19.3912 22.6614 19.7663 22.2863C20.1413 21.9112 20.3521 21.4025 20.3521 20.8721V13.8721" stroke="white" stroke-width="2" stroke-linecap="round" stroke-linejoin="round"/>
<path d="M18.8521 3.37211C19.2499 2.97429 19.7894 2.75079 20.3521 2.75079C20.9147 2.75079 21.4542 2.97429 21.8521 3.37211C22.2499 3.76994 22.4734 4.3095 22.4734 4.87211C22.4734 5.43472 22.2499 5.97429 21.8521 6.37211L12.3521 15.8721L8.35205 16.8721L9.35205 12.8721L18.8521 3.37211Z" stroke="white" stroke-width="2" stroke-linecap="round" stroke-linejoin="round"/>
</svg>
